<?xml version="1.0" encoding="iso-8859-1"?>
<!-- Generator: Adobe Illustrator 19.0.0, SVG Export Plug-In . SVG Version: 6.00 Build 0)  -->
<svg version="1.1" id="Capa_1" xmlns="http://www.w3.org/2000/svg" xmlns:xlink="http://www.w3.org/1999/xlink" x="0px" y="0px"
	 viewBox="0 0 496 496" style="enable-background:new 0 0 496 496;" xml:space="preserve">
<g>
	<rect x="200" y="248" style="fill:#F9E0A6;" width="96" height="96"/>
	<rect x="80" y="424" style="fill:#F9E0A6;" width="336" height="64"/>
</g>
<rect x="80" y="424" style="fill:#EABD8C;" width="336" height="24"/>
<path style="fill:#ECECEC;" d="M416,370.6c0-20.664-13.224-39-32.824-45.536L296,296l-48,32l-48-32l-87.176,29.056
	C93.224,331.592,80,349.936,80,370.6V424h56v64h224v-64h56V370.6z"/>
<path style="fill:#B6C1CE;" d="M383.176,325.056L296,296l-20.888,13.928l91.944,49.04C377.488,364.528,384,375.384,384,387.2V424h32
	v-53.4C416,349.936,402.776,331.592,383.176,325.056z"/>
<rect x="136" y="120" style="fill:#FFC729;" width="224" height="64"/>
<path style="fill:#EABD8C;" d="M200,283.016C214.136,291.224,230.504,296,248,296s33.864-4.776,48-12.984V248h-96V283.016z"/>
<g>
	<path style="fill:#F9E0A6;" d="M168,120v80c0,44.184,35.816,80,80,80s80-35.816,80-80v-80H168z"/>
	<path style="fill:#F9E0A6;" d="M168,152c-17.672,0-32,14.328-32,32s14.328,32,32,32h160c17.672,0,32-14.328,32-32s-14.328-32-32-32
		H168z"/>
</g>
<g>
	<path style="fill:#FFC729;" d="M323.88,230.624c-13.192-4.4-25.744-10.536-37.312-18.248l0,0c-4.28-2.856-9.312-4.376-14.456-4.376
		c-9.872,0-18.896,5.576-23.312,14.408L248,224l3.68,5.52c7.696,11.544,20.648,18.48,34.52,18.48c6.44,0,12.792-1.504,18.552-4.384
		L328,232L323.88,230.624z"/>
	<path style="fill:#FFC729;" d="M223.888,208c-5.144,0-10.176,1.52-14.456,4.376l0,0c-11.568,7.712-24.12,13.848-37.312,18.248
		L168,232l23.24,11.616c5.76,2.88,12.112,4.384,18.552,4.384c13.872,0,26.824-6.936,34.52-18.48L248,224l-0.792-1.592
		C242.792,213.576,233.76,208,223.888,208z"/>
</g>
<polygon style="fill:#D3A06C;" points="392,120 104,120 104,112 144,88 352,88 392,112 "/>
<polygon style="fill:#B27946;" points="352,88 320,88 320,120 392,120 392,112 "/>
<path style="fill:#D3A06C;" d="M331.424,19.4C329.392,12.632,323.16,8,316.096,8H179.904c-7.064,0-13.296,4.632-15.328,11.4L144,88
	h208L331.424,19.4z"/>
<polygon style="fill:#AFB8C9;" points="312,304 288,368 248,328 208,368 184,304 200,296 248,328 296,296 "/>
<polygon style="fill:#148CE0;" points="136,488 136,320 168,304 168,408 328,408 328,304 360,320 360,488 "/>
<g>
	<polygon style="fill:#1261C5;" points="328,338.136 360,355.2 360,320 328,304 	"/>
	<rect x="184" y="440" style="fill:#1261C5;" width="128" height="48"/>
</g>
<path d="M385.712,317.48L304,290.232v-22.408c8.52-7.048,15.672-15.672,21.056-25.408l23.784-11.896l-16.512-5.512
	c0.144-0.488,0.248-0.992,0.384-1.488C352.528,221.16,368,204.44,368,184v-56h32v-20.528l-41.224-24.736l-19.688-65.632
	C336.016,6.872,326.776,0,316.096,0H179.904c-10.68,0-19.92,6.872-22.992,17.104l-19.688,65.632L96,107.472V128h32v56
	c0,20.44,15.472,37.16,35.288,39.52c0.136,0.488,0.24,1,0.384,1.488l-16.512,5.512l23.784,11.896
	c5.384,9.736,12.536,18.368,21.056,25.416v22.408l-81.704,27.24C87.384,325.104,72,346.456,72,370.592V496h352V370.592
	C424,346.456,408.616,325.104,385.712,317.48z M408,370.592V416h-40v-87.568l12.656,4.216C397.008,338.104,408,353.352,408,370.592z
	 M304,480H192v-32h112V480z M176,432v48h-32V323.096l16-5.336V416h176v-98.232l16,5.336V480h-32v-48H176z M198.816,304.824
	l36.624,24.416l-24.312,24.312l-17.608-46.96L198.816,304.824z M297.184,304.824l5.296,1.768l-17.608,46.96L260.56,329.24
	L297.184,304.824z M204.872,382.448L248,339.312l43.128,43.136l26.544-70.792l2.328,0.776V400H176v-87.568l2.328-0.776
	L204.872,382.448z M176,200v-72h144v72c0,6.808-1.016,13.376-2.792,19.624c-9.168-3.744-17.952-8.4-26.208-13.904
	c-5.608-3.736-12.144-5.72-18.888-5.72c-9.272,0-17.832,3.728-24.112,10.056C241.72,203.728,233.168,200,223.888,200
	c-6.744,0-13.28,1.984-18.896,5.72c-8.256,5.504-17.04,10.16-26.208,13.904C177.016,213.376,176,206.808,176,200z M286.2,240
	c-11.224,0-21.64-5.576-27.864-14.912l-0.976-1.464c5.368-7.616,16.84-9.864,24.768-4.584c8.176,5.448,16.816,10.152,25.816,14.048
	l-6.752,3.376C296.56,238.776,291.376,240,286.2,240z M238.64,223.624l-0.976,1.464C231.432,234.424,221.016,240,209.8,240
	c-5.168,0-10.352-1.224-14.984-3.536l-6.76-3.376c9-3.904,17.64-8.6,25.816-14.048C221.816,213.752,233.272,216.008,238.64,223.624z
	 M209.8,256c14.928,0,28.856-6.72,38.2-18.128C257.352,249.28,271.272,256,286.2,256c2.624,0,5.24-0.288,7.84-0.712
	C281.552,265.712,265.496,272,248,272s-33.552-6.288-46.04-16.712C204.552,255.712,207.168,256,209.8,256z M335.664,206.632
	c0.168-2.2,0.336-4.392,0.336-6.632v-38.528c9.288,3.312,16,12.112,16,22.528C352,194.536,345.128,203.416,335.664,206.632z
	 M352,152.208c-4.672-3.536-10.056-6.184-16-7.392V128h16V152.208z M184,67.312L196.688,80h-25.376L184,67.312z M157.352,71.336
	l7.08-23.592L172.688,56L157.352,71.336z M235.312,16h25.376l8,8L248,44.688L227.312,24L235.312,16z M280,35.312L300.688,56
	L280,76.688L259.312,56L280,35.312z M236.688,56L216,76.688L195.312,56L216,35.312L236.688,56z M248,67.312L260.688,80h-25.376
	L248,67.312z M312,67.312L324.688,80h-25.376L312,67.312z M323.312,56l8.256-8.256l7.08,23.592L323.312,56z M323.76,21.696
	l2.592,8.64L312,44.688L291.312,24l8-8h16.784C319.656,16,322.736,18.296,323.76,21.696z M179.904,16h16.784l8,8L184,44.688
	l-14.352-14.352l2.592-8.632C173.264,18.296,176.344,16,179.904,16z M146.216,96h203.568l26.664,16H119.552L146.216,96z M160,128
	v16.808c-5.944,1.216-11.328,3.856-16,7.392V128H160z M144,184c0-10.416,6.712-19.216,16-22.528V200c0,2.24,0.168,4.432,0.336,6.632
	C150.872,203.416,144,194.536,144,184z M248,288c14.408,0,27.984-3.552,40-9.712v13.432l-40,26.664l-40-26.664v-13.432
	C220.016,284.448,233.592,288,248,288z M115.352,332.648L128,328.432V416H88v-45.408C88,353.352,98.992,338.104,115.352,332.648z
	 M88,432h40v48H88V432z M368,480v-48h40v48H368z"/>
<circle cx="208" cy="168" r="8"/>
<circle cx="288" cy="168" r="8"/>
<g>
</g>
<g>
</g>
<g>
</g>
<g>
</g>
<g>
</g>
<g>
</g>
<g>
</g>
<g>
</g>
<g>
</g>
<g>
</g>
<g>
</g>
<g>
</g>
<g>
</g>
<g>
</g>
<g>
</g>
</svg>
