<?xml version="1.0" encoding="iso-8859-1"?>
<!-- Generator: Adobe Illustrator 19.0.0, SVG Export Plug-In . SVG Version: 6.00 Build 0)  -->
<svg version="1.1" id="Capa_1" xmlns="http://www.w3.org/2000/svg" xmlns:xlink="http://www.w3.org/1999/xlink" x="0px" y="0px"
	 viewBox="0 0 496 496" style="enable-background:new 0 0 496 496;" xml:space="preserve">
<rect x="80" y="424" style="fill:#F9E0A6;" width="336" height="64"/>
<rect x="80" y="424" style="fill:#EABD8C;" width="336" height="24"/>
<path style="fill:#B27946;" d="M136,120v92.224c0,23.528-5.48,46.736-16,67.776l0,0c0,0,29.2,9.736,80,14.016h96
	c50.8-4.28,80-14.016,80-14.016l0,0c-10.52-21.048-16-44.248-16-67.776V120H136z"/>
<rect x="200" y="240" style="fill:#F9E0A6;" width="96" height="104"/>
<path style="fill:#EABD8C;" d="M200,283.016C214.136,291.224,230.504,296,248,296s33.864-4.776,48-12.984V240h-96V283.016z"/>
<g>
	<path style="fill:#F9E0A6;" d="M168,120v80c0,44.184,35.816,80,80,80s80-35.816,80-80v-80H168z"/>
	<path style="fill:#F9E0A6;" d="M168,152c-17.672,0-32,14.328-32,32s14.328,32,32,32h160c17.672,0,32-14.328,32-32s-14.328-32-32-32
		H168z"/>
</g>
<path style="fill:#ECECEC;" d="M383.176,325.056L296,296l-48,32l-48-32l-87.176,29.056C93.224,331.592,80,349.936,80,370.6V424h56
	v64h224v-64h56v-53.4C416,349.936,402.776,331.592,383.176,325.056z"/>
<g>
	<path style="fill:#FFC729;" d="M136,360H81.328C80.544,363.44,80,366.96,80,370.6V392h56V360z"/>
	<path style="fill:#FFC729;" d="M414.672,360H360v32h56v-21.4C416,366.96,415.456,363.44,414.672,360z"/>
</g>
<g>
	<path style="fill:#FCD770;" d="M400,120H96l0,0c14.712,0,28.152-8.312,34.736-21.464L136,88h224l5.264,10.536
		C371.848,111.688,385.288,120,400,120L400,120z"/>
	<path style="fill:#FCD770;" d="M272,8h-48c-44.184,0-80,35.816-80,80h208C352,43.816,316.184,8,272,8z"/>
</g>
<path style="fill:#FFC729;" d="M147.672,64C145.296,71.576,144,79.64,144,88h208c0-8.36-1.296-16.424-3.672-24H147.672z"/>
<polygon style="fill:#AFB8C9;" points="312,304 288,368 248,328 208,368 184,304 200,296 248,328 296,296 "/>
<path style="fill:#48C397;" d="M136,488V320l32-8v80c0,0,32,16,80,16s80-16,80-16v-88l32,16v168H136z"/>
<g>
	<circle style="fill:#FCD770;" cx="184" cy="448" r="16"/>
	<circle style="fill:#FCD770;" cx="312" cy="448" r="16"/>
</g>
<path d="M385.712,317.48l-57.392-19.136c31.496-4.624,49.264-10.44,50.216-10.76l8.752-2.912l-4.128-8.248
	c-9.92-19.832-15.16-42.032-15.16-64.2V128h32v-16c-11.76,0-22.32-6.528-27.576-17.048L364.944,80h-5.352
	C355.536,35.216,317.824,0,272,0h-48c-45.824,0-83.536,35.216-87.592,80h-5.352l-7.48,14.952C118.32,105.472,107.76,112,96,112v16
	h32v84.224c0,22.168-5.24,44.368-15.16,64.192l-4.128,8.248l8.752,2.912c0.944,0.32,18.72,6.128,50.216,10.76l-57.392,19.136
	C87.392,325.104,72,346.456,72,370.592V496h352V370.592C424,346.456,408.608,325.104,385.712,317.48z M403.384,352H368v-23.568
	l12.648,4.216C390.696,336,398.688,343.064,403.384,352z M408,370.592V384h-40v-16h39.792C407.848,368.872,408,369.712,408,370.592z
	 M88.208,368H128v16H88v-13.408C88,369.712,88.152,368.872,88.208,368z M128,400v16H88v-16H128z M144,323.096l16-5.336v79.176
	l4.424,2.208C165.8,399.84,198.68,416,248,416s82.2-16.16,83.576-16.84l4.424-2.216v-79.176l16,5.336V480H144V323.096z
	 M178.328,311.656l26.552,70.792L248,339.312l43.128,43.128l26.552-70.792l2.32,0.784v74.352C309.968,390.864,283.56,400,248,400
	c-35.384,0-61.912-9.152-72-13.232v-74.336L178.328,311.656z M160.336,206.632C150.872,203.416,144,194.536,144,184
	c0-10.416,6.712-19.216,16-22.528V200C160,202.24,160.168,204.432,160.336,206.632z M176,128h144v72c0,39.704-32.296,72-72,72
	s-72-32.296-72-72V128z M335.664,206.632c0.168-2.2,0.336-4.392,0.336-6.632v-38.528c9.288,3.312,16,12.112,16,22.528
	C352,194.536,345.128,203.416,335.664,206.632z M297.184,304.824l5.296,1.768l-17.608,46.96l-24.32-24.312L297.184,304.824z
	 M248,288c14.408,0,27.984-3.552,40-9.712v13.432l-40,26.664l-40-26.664v-13.432C220.016,284.448,233.592,288,248,288z
	 M198.816,304.824l36.624,24.416l-24.32,24.312l-17.608-46.96L198.816,304.824z M368,400h40v16h-40V400z M304,285.216v-17.384
	c13.688-11.32,23.824-26.728,28.712-44.304c7.28-0.872,13.92-3.624,19.464-7.872c0.44,20.296,4.68,40.528,12.64,59.208
	C353.896,277.672,332.904,282.28,304,285.216z M352,152.208c-4.672-3.536-10.056-6.184-16-7.392V128h16V152.208z M224,16h48
	c37,0,67.536,28.056,71.528,64H152.472C156.464,44.056,187,16,224,16z M137.888,102.112L140.944,96h214.112l3.056,6.112
	c1.816,3.624,4.04,6.936,6.608,9.888H131.28C133.848,109.048,136.08,105.736,137.888,102.112z M160,128v16.808
	c-5.944,1.216-11.328,3.856-16,7.392V128H160z M143.824,215.648c5.544,4.248,12.184,7,19.464,7.872
	c4.888,17.576,15.024,32.984,28.712,44.304v17.384c-28.904-2.936-49.896-7.536-60.816-10.352
	C139.144,256.176,143.384,235.944,143.824,215.648z M115.352,332.648L128,328.432V352H92.616
	C97.312,343.064,105.304,336,115.352,332.648z M88,432h40v48H88V432z M368,480v-48h40v48H368z"/>
<circle cx="208" cy="168" r="8"/>
<circle cx="288" cy="168" r="8"/>
<path d="M248,248c22.056,0,40-17.944,40-40h-16c0,13.232-10.768,24-24,24s-24-10.768-24-24h-16C208,230.056,225.944,248,248,248z"/>
<path d="M184,424c-13.232,0-24,10.768-24,24s10.768,24,24,24s24-10.768,24-24S197.232,424,184,424z M184,456c-4.416,0-8-3.584-8-8
	s3.584-8,8-8s8,3.584,8,8S188.416,456,184,456z"/>
<path d="M312,424c-13.232,0-24,10.768-24,24s10.768,24,24,24s24-10.768,24-24S325.232,424,312,424z M312,456c-4.416,0-8-3.584-8-8
	s3.584-8,8-8s8,3.584,8,8S316.416,456,312,456z"/>
<g>
</g>
<g>
</g>
<g>
</g>
<g>
</g>
<g>
</g>
<g>
</g>
<g>
</g>
<g>
</g>
<g>
</g>
<g>
</g>
<g>
</g>
<g>
</g>
<g>
</g>
<g>
</g>
<g>
</g>
</svg>
