<?xml version="1.0" encoding="iso-8859-1"?>
<!-- Generator: Adobe Illustrator 19.0.0, SVG Export Plug-In . SVG Version: 6.00 Build 0)  -->
<svg version="1.1" id="Capa_1" xmlns="http://www.w3.org/2000/svg" xmlns:xlink="http://www.w3.org/1999/xlink" x="0px" y="0px"
	 viewBox="0 0 511.204 511.204" style="enable-background:new 0 0 511.204 511.204;" xml:space="preserve">
<g>
	<polygon style="fill:#FFCE54;" points="391.859,387.319 395.384,371.422 475.26,403.372 469.854,419.346 	"/>
	<polygon style="fill:#FFCE54;" points="119.337,387.319 115.82,371.422 35.944,403.372 41.346,419.346 	"/>
</g>
<path style="fill:#656D78;" d="M499.192,467.194c0,31.951,0,39.938,0,39.938L323.7,507.21l31.747-39.938l-7.987-23.963
	l39.906-48.002l-17.146-17.131c18.05,7.91,69.377,28.791,81.046,33.105C483.216,423.184,499.192,435.245,499.192,467.194z"/>
<g style="opacity:0.6;">
	<path style="opacity:0.3;enable-background:new    ;" d="M375.455,380.438c22.746,9.533,66.436,27.381,75.812,30.844
		c31.95,11.902,47.926,23.963,47.926,55.912c0,31.951,0,39.938,0,39.938h-15.976c0-16.801,0-3.627,0-23.961
		c0-31.951-15.975-44.01-47.925-55.914c-7.083-2.621-35.648-14.344-55.648-22.574L375.455,380.438z"/>
</g>
<polygon style="fill:#E6E9ED;" points="255.586,380.081 163.718,324.159 163.718,355.446 185.387,416.211 255.571,388.067 
	326.866,415.727 347.444,355.368 347.444,324.159 "/>
<g style="opacity:0.2;">
	<path d="M255.571,387.319c27.255,0,63.214-22.215,91.873-56.084v-7.076l-91.857,55.922l-91.869-55.922v7.201
		C192.361,365.198,228.332,387.319,255.571,387.319z"/>
</g>
<g>
	<polygon style="fill:#656D78;" points="323.7,507.209 294.877,507.209 347.428,355.368 387.366,395.307 347.459,443.309 
		355.447,467.272 	"/>
	<path style="fill:#656D78;" d="M11.981,467.194c0,31.951,0,39.938,0,39.938l175.493,0.078l-31.748-39.938l7.988-23.963
		l-39.907-48.002l17.146-17.131c-18.05,7.91-69.376,28.791-81.046,33.105C27.956,423.184,11.981,435.245,11.981,467.194z"/>
</g>
<g style="opacity:0.3;">
	<path style="fill:#FFFFFF;" d="M135.718,380.438c-22.746,9.533-66.436,27.381-75.812,30.844
		c-31.95,11.902-47.925,23.963-47.925,55.912c0,31.951,0,39.938,0,39.938h15.975c0-16.801,0-3.627,0-23.961
		c0-31.951,15.975-44.01,47.925-55.914c7.083-2.621,35.648-14.344,55.648-22.574L135.718,380.438z"/>
</g>
<polygon style="fill:#656D78;" points="187.474,507.209 216.296,507.209 163.745,355.368 123.807,395.307 163.714,443.309 
	155.726,467.272 "/>
<g style="opacity:0.3;">
	<polygon style="fill:#FFFFFF;" points="323.7,507.209 294.877,507.209 347.428,355.368 387.366,395.307 347.459,443.309 
		355.447,467.272 	"/>
</g>
<g style="opacity:0.3;">
	<polygon style="fill:#FFFFFF;" points="187.474,507.209 216.296,507.209 163.745,355.368 123.807,395.307 163.714,443.309 
		155.726,467.272 	"/>
</g>
<polygon style="fill:#CCD1D9;" points="255.571,387.319 326.866,415.727 294.877,507.209 224.775,507.131 216.296,507.209 
	185.379,415.463 "/>
<polygon style="fill:#ED5565;" points="275.54,427.256 235.602,427.256 222.544,400.532 255.571,387.319 288.598,400.532 "/>
<g style="opacity:0.3;">
	<polygon style="fill:#FFFFFF;" points="226.117,415.821 235.602,435.245 243.589,435.245 232.81,413.176 	"/>
</g>
<g style="opacity:0.3;">
	<polygon points="285.025,415.821 275.54,435.245 267.552,435.245 278.332,413.176 	"/>
</g>
<polygon style="fill:#ED5565;" points="283.528,505.883 227.615,505.883 227.615,467.194 243.589,427.256 267.552,427.256 
	283.528,467.194 "/>
<g style="opacity:0.3;">
	<polygon style="fill:#FFFFFF;" points="251.577,427.256 243.589,427.256 227.615,467.194 227.615,505.883 235.602,505.883 
		235.602,467.194 	"/>
</g>
<g style="opacity:0.3;">
	<polygon points="259.565,427.256 267.552,427.256 283.528,467.194 283.528,505.883 278.769,505.883 275.54,505.883 275.54,467.194 
			"/>
</g>
<g style="opacity:0.3;">
	<polygon points="254.837,387.616 185.379,415.463 187.977,423.622 255.571,396.055 323.356,423.028 325.774,415.416 
		256.32,387.616 255.586,388.067 	"/>
</g>
<path style="fill:#EAC6BB;" d="M255.571,51.919c-71.248,0-131.795,91.607-131.795,91.607s0,53.152,0,60.156v17.349
	c0,0-1.599,50.944,40.18,39.438c41.771-11.498,67.177-30.593,83.152-15.25c5.749,5.515,8.463,11.419,8.463,17.169
	c0-5.75,2.715-11.655,8.463-17.169c15.976-15.343,41.382,3.752,83.152,15.25c41.779,11.506,40.18-39.438,40.18-39.438V147.77
	C387.366,56.31,332.732,51.919,255.571,51.919z"/>
<g style="opacity:0.2;">
	<path d="M387.366,221.031V147.77c0-91.459-54.634-95.851-131.795-95.851c-0.604,0-1.205,0.062-1.806,0.07
		c69.591,0.819,117.626,10.023,117.626,95.781v73.261c0,0,1.053,33.65-20.983,40.079
		C388.754,269.049,387.366,221.031,387.366,221.031z"/>
</g>
<g style="opacity:0.5;">
	<path style="fill:#FFFFFF;" d="M139.751,221.031v-17.349c0-7.004,0-60.156,0-60.156s59.528-90.008,129.985-91.537
		c-4.626-0.055-9.354-0.07-14.166-0.07c-71.248,0-131.795,91.607-131.795,91.607s0,53.152,0,60.156v17.349
		c0,0-1.392,48.018,36.962,40.079C138.698,254.682,139.751,221.031,139.751,221.031z"/>
</g>
<path style="fill:#EAC6BB;" d="M303.653,299.69c-30.43-7.91-48.082-22.441-48.082-37.301c0,14.859-17.652,29.391-48.081,37.301
	c-13.979,3.604-53.511-8.658-70.531-14.805l14.454,22.637c3.916,5.592,8.065,10.943,12.301,15.975
	c28.596,33.869,64.618,55.912,91.857,55.912s63.261-22.043,91.857-55.912c4.235-5.031,8.385-10.383,12.301-15.975l14.454-22.637
	C357.163,291.032,317.63,303.293,303.653,299.69z"/>
<g style="opacity:0.5;">
	<path style="fill:#FFFFFF;" d="M179.689,323.497c-4.235-5.031-8.385-10.383-12.301-15.975l-10.227-16.023
		c-7.894-2.355-15.078-4.758-20.203-6.613l14.454,22.637c3.916,5.592,8.065,10.943,12.301,15.975
		c28.596,33.869,64.618,55.912,91.857,55.912c2.582,0,5.266-0.266,7.987-0.646C237.529,375.065,205.579,354.151,179.689,323.497z"/>
</g>
<g style="opacity:0.2;">
	<path d="M331.453,323.497c4.235-5.031,8.386-10.383,12.302-15.975l10.226-16.023c7.894-2.355,15.078-4.758,20.203-6.613
		l-14.454,22.637c-3.916,5.592-8.065,10.943-12.301,15.975c-28.597,33.869-64.618,55.912-91.857,55.912
		c-2.582,0-5.265-0.266-7.987-0.646C273.613,375.065,305.563,354.151,331.453,323.497z"/>
</g>
<g>
	<path style="fill:#FC6E51;" d="M247.107,245.22c5.749,5.515,8.463,11.419,8.463,17.169c0,14.859-17.652,29.391-48.081,37.301
		c-13.979,3.604-32.59,1.762-49.61-4.385c-33.706-12.23-61.498-41.138-36.74-77.644c0,0,1.038,54.314,42.816,42.808
		C205.727,248.972,231.132,229.876,247.107,245.22z"/>
	<path style="fill:#FC6E51;" d="M390.081,217.661c27.16,40.093-9.182,71.093-47.044,80.75c-13.979,3.604-28.12,4.158-39.384,1.279
		c-30.43-7.91-48.082-22.441-48.082-37.301c0-5.75,2.715-11.655,8.463-17.169c15.976-15.343,41.382,3.752,83.152,15.25
		C388.965,271.975,390.081,217.661,390.081,217.661z"/>
</g>
<g style="opacity:0.3;">
	<path style="fill:#FFFFFF;" d="M142.388,276.491c-9.033-8.705-14.75-19.383-14.696-31.497c-6.209-12.512-6.552-27.286-6.552-27.286
		c-15.975,23.565-10.062,44.009,5.273,58.783c18.261,17.691,49.735,27.193,73.229,24.557
		C179.245,299.143,156.733,290.391,142.388,276.491z"/>
</g>
<g style="opacity:0.2;">
	<path d="M390.002,217.708c0,0-0.344,14.774-6.553,27.286c0.055,12.114-5.663,22.792-14.695,31.497
		c-14.346,13.9-36.857,22.652-57.255,24.557c23.495,2.637,54.969-6.865,73.229-24.557
		C400.065,261.717,405.977,241.273,390.002,217.708z"/>
</g>
<polygon style="fill:#FFCE54;" points="279.565,54.236 267.583,66.537 270.375,83.869 255.602,75.726 240.824,83.869 
	243.621,66.537 231.639,54.236 248.173,51.763 255.602,35.944 263.032,51.763 "/>
<g style="opacity:0.5;">
	<polygon style="fill:#FFFFFF;" points="231.639,54.236 243.621,66.537 240.824,83.869 249.592,79.041 251.608,66.537 
		239.627,54.236 	"/>
</g>
<g style="opacity:0.2;">
	<polygon points="279.721,54.236 267.74,66.537 270.532,83.869 261.768,79.041 259.752,66.537 271.733,54.236 	"/>
</g>
<path style="fill:#656D78;" d="M387.397,147.77c0,0,0-39.938-131.795-39.938S123.807,147.77,123.807,147.77h-8.065
	c0,0-23.885-24.922-23.885-43.932c0-55.117,73.327-99.844,163.745-99.844c90.422,0,163.745,44.727,163.745,99.844
	c0,19.009-23.885,43.932-23.885,43.932H387.397z M267.583,66.537l11.981-12.301l-16.533-2.473l-7.429-15.819l-7.43,15.819
	l-16.533,2.473l11.981,12.301l-2.796,17.332l14.778-8.143l14.773,8.144L267.583,66.537z"/>
<g style="opacity:0.2;">
	<path style="fill:#FFFFFF;" d="M107.832,103.838c0-53.471,69.072-97.037,155.757-99.595c-2.663-0.078-5.292-0.249-7.987-0.249
		c-90.418,0-163.745,44.727-163.745,99.844c0,19.009,23.885,43.932,23.885,43.932h8.065c0,0,0.016-2.628,2.235-6.529
		C118.979,132.567,107.832,116.826,107.832,103.838z"/>
</g>
<g style="opacity:0.2;">
	<path d="M403.34,103.838c0-53.471-69.079-97.037-155.757-99.595c2.66-0.078,5.289-0.249,7.987-0.249
		c90.414,0,163.745,44.727,163.745,99.844c0,19.009-23.885,43.932-23.885,43.932h-8.065c0,0-0.016-2.628-2.238-6.529
		C392.186,132.567,403.34,116.826,403.34,103.838z"/>
</g>
<polygon style="fill:#656D78;" points="363.434,163.745 387.397,163.745 347.459,195.695 163.745,195.695 123.807,163.745 
	147.77,163.745 "/>
<g style="opacity:0.2;">
	<polygon style="fill:#FFFFFF;" points="123.807,163.745 163.745,195.695 179.72,195.695 139.783,163.745 	"/>
</g>
<g style="opacity:0.2;">
	<polygon points="387.366,163.745 347.428,195.695 331.453,195.695 371.391,163.745 	"/>
</g>
<path style="fill:#656D78;" d="M387.397,147.77v15.975h-23.963H147.77h-23.963V147.77c0,0,0-39.938,131.795-39.938
	S387.397,147.77,387.397,147.77z"/>
<g style="opacity:0.3;">
	<path d="M387.397,147.77v15.975h-23.963H147.77h-23.963V147.77c0,0,0-39.938,131.795-39.938S387.397,147.77,387.397,147.77z"/>
</g>
<g style="opacity:0.2;">
	<path style="fill:#FFFFFF;" d="M263.589,107.91c-2.632-0.039-5.241-0.078-7.987-0.078c-131.795,0-131.795,39.938-131.795,39.938
		v15.975h15.976V147.77C139.783,147.77,139.868,109.501,263.589,107.91z"/>
</g>
<g style="opacity:0.2;">
	<path d="M247.583,107.91c2.629-0.039,5.242-0.078,7.987-0.078c131.795,0,131.795,39.938,131.795,39.938v15.975H371.39V147.77
		C371.391,147.77,371.305,109.501,247.583,107.91z"/>
</g>
<g>
	<path style="fill:#3A3847;" d="M255.602,383.403c-32.878,0-77.056-30.258-107.431-73.588c-1.264-1.811-0.826-4.299,0.979-5.562
		c1.81-1.271,4.298-0.826,5.562,0.975c28.971,41.326,70.457,70.188,100.89,70.188c32.66,0,77.325-32.846,106.218-78.104
		c1.201-1.873,3.674-2.395,5.515-1.225c1.864,1.193,2.41,3.658,1.225,5.514C338.301,349.004,290.797,383.403,255.602,383.403z"/>
	<path style="fill:#3A3847;" d="M191.742,305.508c-11.338,0-23.507-2.23-35.184-6.459c-24.126-8.736-41.189-23.705-46.822-41.068
		c-4.45-13.728-1.716-28.05,8.132-42.559c0.971-1.443,2.749-2.09,4.434-1.591c1.669,0.491,2.824,2.013,2.863,3.752
		c0.035,1.654,1.154,40.5,27.91,40.5c3.027,0,6.342-0.492,9.848-1.459c12.699-3.494,23.916-7.722,33.814-11.451
		c14.329-5.405,25.651-9.665,35.526-9.665c7.079,0,12.848,2.231,17.637,6.833c6.342,6.068,9.696,13.003,9.696,20.047
		c0,17.215-19.571,32.986-51.077,41.17C203.468,304.854,197.829,305.508,191.742,305.508z M118.659,230.633
		c-3.459,8.573-3.908,16.912-1.326,24.884c4.793,14.781,20.472,28.246,41.943,36.029c16.279,5.891,34.524,7.543,47.246,4.275
		c27.388-7.105,45.086-20.234,45.086-33.432c0-4.814-2.5-9.751-7.235-14.283c-8.826-8.479-23.222-3.612-44.821,4.54
		c-10.059,3.791-21.458,8.089-34.509,11.685c-4.197,1.154-8.226,1.74-11.97,1.74C131.581,266.071,122.009,246.982,118.659,230.633z"
		/>
	<path style="fill:#3A3847;" d="M319.549,305.524c-6.092,0-11.763-0.662-16.856-1.965c-31.514-8.184-51.084-23.955-51.084-41.17
		c0-7.044,3.354-13.979,9.696-20.055c4.789-4.595,10.554-6.826,17.637-6.826c9.875,0,21.193,4.259,35.53,9.665
		c9.891,3.729,21.107,7.957,33.807,11.451c3.511,0.967,6.826,1.459,9.852,1.459c26.771,0,27.949-38.854,27.988-40.507
		c0.039-1.739,1.201-3.253,2.863-3.744c1.685-0.491,3.463,0.156,4.438,1.591c10.172,15.016,12.723,30.414,7.371,44.518
		c-8.635,22.744-34.969,36.793-56.731,42.348C335.696,304.432,327.452,305.524,319.549,305.524z M278.941,243.496
		c-4.984,0-8.838,1.458-12.106,4.602c-4.738,4.54-7.238,9.477-7.238,14.291c0,13.197,17.699,26.326,45.094,33.432
		c10.258,2.637,24.002,2.168,37.387-1.271c19.828-5.062,43.697-17.559,51.248-37.449c3.206-8.456,2.965-17.333-0.717-26.482
		c-3.37,16.357-12.973,35.453-34.479,35.453c-3.744,0-7.776-0.586-11.973-1.74c-13.051-3.596-24.446-7.894-34.509-11.685
		C298.082,247.529,287.358,243.496,278.941,243.496z"/>
	<path style="fill:#3A3847;" d="M347.459,199.689H163.745c-0.909,0-1.791-0.312-2.496-0.874l-39.93-31.942
		c-1.724-1.381-2.009-3.893-0.636-5.616c1.369-1.724,3.881-2.013,5.612-0.64l38.854,31.084h180.906l38.854-31.084
		c1.716-1.365,4.243-1.084,5.616,0.64s1.084,4.243-0.64,5.616l-39.93,31.942C349.246,199.377,348.364,199.689,347.459,199.689z"/>
	<path style="fill:#3A3847;" d="M387.397,167.739h-263.59c-2.207,0-3.994-1.787-3.994-3.994s1.787-3.994,3.994-3.994h263.59
		c2.207,0,3.994,1.787,3.994,3.994S389.604,167.739,387.397,167.739z"/>
	<path style="fill:#3A3847;" d="M123.807,167.739c-2.207,0-3.994-1.787-3.994-3.994V147.77c0-2.208,1.787-3.994,3.994-3.994
		c2.208,0,3.994,1.786,3.994,3.994v15.975C127.801,165.953,126.015,167.739,123.807,167.739z"/>
	<path style="fill:#3A3847;" d="M387.397,167.739c-2.207,0-3.994-1.787-3.994-3.994V147.77c0-2.208,1.787-3.994,3.994-3.994
		s3.994,1.786,3.994,3.994v15.975C391.391,165.953,389.604,167.739,387.397,167.739z"/>
	<path style="fill:#3A3847;" d="M387.397,151.764c-2.207,0-3.994-1.786-3.994-3.994c-0.016-0.265-3.275-35.944-127.801-35.944
		c-124.326,0-127.801,35.585-127.801,35.944c0,2.208-1.786,3.994-3.994,3.994c-2.207,0-3.994-1.786-3.994-3.994
		c0-1.794,1.544-43.932,135.789-43.932s135.789,42.137,135.789,43.932C391.391,149.977,389.604,151.764,387.397,151.764z"/>
	<path style="fill:#3A3847;" d="M395.462,151.764c-0.99,0-1.989-0.366-2.761-1.107c-1.592-1.529-1.646-4.057-0.125-5.647
		c0.226-0.242,22.776-24.002,22.776-41.17c0-52.855-71.661-95.851-159.751-95.851c-88.085,0-159.751,42.996-159.751,95.851
		c0,17.168,22.547,40.928,22.777,41.17c1.521,1.591,1.466,4.118-0.125,5.647c-1.588,1.521-4.119,1.474-5.644-0.125
		c-1.022-1.061-24.997-26.311-24.997-46.693C87.863,46.584,163.109,0,255.602,0C348.09,0,423.34,46.584,423.34,103.838
		c0,20.382-23.978,45.632-24.992,46.693C397.561,151.351,396.516,151.764,395.462,151.764z"/>
	<path style="fill:#3A3847;" d="M387.397,207.677c-2.207,0-3.994-1.786-3.994-3.994v-23.962c0-2.208,1.787-3.994,3.994-3.994
		s3.994,1.786,3.994,3.994v23.962C391.391,205.891,389.604,207.677,387.397,207.677z"/>
	<path style="fill:#3A3847;" d="M123.807,207.677c-2.207,0-3.994-1.786-3.994-3.994v-23.962c0-2.208,1.787-3.994,3.994-3.994
		c2.208,0,3.994,1.786,3.994,3.994v23.962C127.801,205.891,126.015,207.677,123.807,207.677z"/>
	<path style="fill:#3A3847;" d="M270.375,87.863c-0.662,0-1.326-0.164-1.926-0.499l-12.847-7.075l-12.851,7.075
		c-1.33,0.749-2.98,0.655-4.228-0.227c-1.248-0.881-1.884-2.395-1.642-3.908l2.477-15.343L228.778,57.02
		c-1.045-1.068-1.4-2.637-0.921-4.063c0.476-1.42,1.712-2.45,3.194-2.668l14.415-2.161l6.521-13.884c1.318-2.792,5.912-2.792,7.23,0
		l6.518,13.884l14.423,2.161c1.481,0.218,2.714,1.248,3.19,2.668c0.483,1.427,0.125,2.995-0.921,4.063l-10.584,10.867l2.473,15.351
		c0.25,1.506-0.39,3.019-1.638,3.9C271.991,87.621,271.187,87.863,270.375,87.863z M255.602,71.732c0.663,0,1.326,0.164,1.927,0.499
		l7.598,4.188l-1.482-9.251c-0.206-1.24,0.195-2.512,1.077-3.417l6.544-6.716l-8.822-1.326c-1.322-0.195-2.457-1.037-3.026-2.246
		l-3.816-8.127l-3.814,8.128c-0.569,1.209-1.704,2.051-3.026,2.246l-8.822,1.326l6.544,6.716c0.881,0.905,1.283,2.176,1.081,3.424
		l-1.49,9.243l7.602-4.188C254.276,71.896,254.939,71.732,255.602,71.732z"/>
	<path style="fill:#3A3847;" d="M499.223,511.204H11.981c-2.208,0-3.994-1.785-3.994-3.994v-39.938
		c0-33.002,16.354-46.029,44.599-57.379l2.449-0.951c1.154-0.453,2.324-0.914,3.521-1.342c11.876-4.393,29.821-11.295,47.668-19.15
		c2.024-0.873,4.372,0.039,5.262,2.051c0.889,2.021-0.027,4.377-2.048,5.266c-18.026,7.934-36.131,14.891-48.147,19.338
		c-1.154,0.412-2.25,0.85-3.335,1.271l-2.48,0.959c-25.589,10.281-39.501,21.303-39.501,49.938v35.945h479.254v-35.946
		c0-30.008-14.618-40.725-45.328-52.168c-9.594-3.549-28.627-10.789-48.128-19.338c-2.021-0.889-2.94-3.236-2.06-5.258
		c0.89-2.035,3.276-2.924,5.258-2.059c19.321,8.463,38.183,15.641,47.715,19.166c32.777,12.207,50.53,25.336,50.53,59.656v39.938
		C503.216,509.418,501.43,511.204,499.223,511.204z"/>
	<path style="fill:#3A3847;" d="M275.571,431.329h-39.938c-1.514,0-2.894-0.857-3.573-2.207l-7.988-15.977
		c-0.986-1.973-0.187-4.367,1.787-5.357c1.973-0.992,4.364-0.18,5.359,1.785l6.884,13.768h35.004l6.88-13.768
		c0.999-1.965,3.386-2.77,5.359-1.785c1.974,0.99,2.769,3.385,1.786,5.357l-7.988,15.977
		C278.465,430.471,277.084,431.329,275.571,431.329z"/>
	<path style="fill:#3A3847;" d="M227.646,471.266c-0.496,0-0.999-0.094-1.482-0.289c-2.048-0.818-3.046-3.143-2.227-5.188
		l15.975-39.938c0.815-2.043,3.163-3.049,5.191-2.223c2.047,0.818,3.046,3.145,2.227,5.188l-15.975,39.938
		C230.731,470.315,229.229,471.266,227.646,471.266z"/>
	<path style="fill:#3A3847;" d="M283.559,471.266c-1.584,0-3.082-0.951-3.705-2.512l-15.976-39.938
		c-0.823-2.043,0.171-4.369,2.223-5.188c2.044-0.826,4.368,0.18,5.188,2.223l15.976,39.938c0.818,2.045-0.172,4.369-2.224,5.188
		C284.557,471.172,284.05,471.266,283.559,471.266z"/>
	<path style="fill:#3A3847;" d="M323.739,511.204c-0.874,0-1.748-0.281-2.48-0.865c-1.732-1.373-2.021-3.885-0.648-5.609
		l30.367-38.244l-7.309-21.912c-0.438-1.311-0.164-2.76,0.725-3.822l37.598-45.125l-37.355-37.355c-1.561-1.561-1.561-4.088,0-5.646
		c1.561-1.561,4.088-1.561,5.647,0l39.938,39.938c1.458,1.459,1.567,3.791,0.241,5.381l-38.511,46.219l7.286,21.848
		c0.421,1.279,0.179,2.691-0.663,3.744l-31.709,39.938C326.079,510.69,324.909,511.204,323.739,511.204z"/>
	<path style="fill:#3A3847;" d="M294.901,511.204c-0.438,0-0.874-0.07-1.311-0.219c-2.083-0.725-3.184-3.002-2.465-5.086
		l52.559-151.756c0.717-2.074,2.995-3.174,5.078-2.473c2.09,0.727,3.189,2.996,2.473,5.078l-52.559,151.771
		C298.098,510.166,296.554,511.204,294.901,511.204z"/>
	<path style="fill:#3A3847;" d="M315.508,415.354c-0.491,0-0.998-0.094-1.481-0.289l-59.907-23.963
		c-2.047-0.818-3.046-3.145-2.227-5.188c0.815-2.051,3.163-3.041,5.191-2.223l59.906,23.963c2.052,0.818,3.042,3.143,2.224,5.188
		C318.59,414.401,317.092,415.354,315.508,415.354z"/>
	<path style="fill:#3A3847;" d="M187.474,511.204c-1.178,0-2.344-0.514-3.132-1.514l-31.713-39.938
		c-0.838-1.053-1.088-2.465-0.659-3.744l7.282-21.848l-38.515-46.219c-1.322-1.59-1.217-3.922,0.246-5.381l39.938-39.938
		c1.56-1.561,4.087-1.561,5.647,0c1.56,1.559,1.56,4.086,0,5.646l-37.36,37.355l37.605,45.125c0.885,1.062,1.159,2.512,0.718,3.822
		l-7.301,21.912l30.367,38.244c1.373,1.725,1.084,4.236-0.644,5.609C189.217,510.922,188.343,511.204,187.474,511.204z"/>
	<path style="fill:#3A3847;" d="M216.304,511.204c-1.654,0-3.202-1.037-3.775-2.684l-52.559-151.771
		c-0.721-2.082,0.386-4.352,2.469-5.078c2.083-0.732,4.361,0.383,5.082,2.473L220.076,505.9c0.725,2.084-0.379,4.361-2.465,5.086
		C217.177,511.133,216.737,511.204,216.304,511.204z"/>
	<path style="fill:#3A3847;" d="M195.695,415.354c-1.583,0-3.085-0.953-3.709-2.512c-0.819-2.045,0.179-4.369,2.227-5.188
		l59.907-23.963c2.02-0.811,4.376,0.18,5.191,2.223c0.819,2.043-0.18,4.369-2.227,5.188l-59.907,23.963
		C196.694,415.26,196.191,415.354,195.695,415.354z"/>
	<path style="fill:#3A3847;" d="M255.602,495.229c-2.208,0-3.994-1.787-3.994-3.994v-39.938c0-2.207,1.786-3.994,3.994-3.994
		c2.207,0,3.994,1.787,3.994,3.994v39.938C259.596,493.442,257.809,495.229,255.602,495.229z"/>
	<path style="fill:#3A3847;" d="M475.26,407.366c-0.491,0-0.998-0.094-1.482-0.289l-79.875-31.949
		c-2.052-0.82-3.043-3.145-2.224-5.188c0.819-2.045,3.136-3.043,5.188-2.223l79.876,31.949c2.051,0.818,3.042,3.145,2.223,5.188
		C478.341,406.414,476.843,407.366,475.26,407.366z"/>
	<path style="fill:#3A3847;" d="M35.944,407.366c-1.583,0-3.081-0.943-3.705-2.504c-0.823-2.051,0.172-4.377,2.216-5.195
		l79.883-31.949c2.052-0.812,4.372,0.178,5.191,2.223c0.819,2.051-0.18,4.367-2.227,5.188l-79.868,31.949
		C36.943,407.272,36.439,407.366,35.944,407.366z"/>
</g>
<g>
</g>
<g>
</g>
<g>
</g>
<g>
</g>
<g>
</g>
<g>
</g>
<g>
</g>
<g>
</g>
<g>
</g>
<g>
</g>
<g>
</g>
<g>
</g>
<g>
</g>
<g>
</g>
<g>
</g>
</svg>
